<svg xmlns="http://www.w3.org/2000/svg" width="512" height="512" viewBox="0 0 512 512"><rect x="0" y="0" width="512" height="512" rx="112" fill="#14141c"/><path d="M163.37-17.26L41.64-17.26L41.64-43.96L163.37-43.96L163.37-17.26M50.72 0L1.78 0L78.13-113.90L127.60-113.90L204.66 0L155.72 0L89.69-101.97L116.21-101.97L50.72 0M314.11 3.56Q275.31 3.56 251.64-3.29Q227.97-10.14 217.21-23.58Q206.44-37.02 206.44-56.95Q206.44-76.88 217.21-90.32Q227.97-103.75 251.64-110.61Q275.31-117.46 314.11-117.46Q352.91-117.46 376.58-110.61Q400.25-103.75 411.01-90.32Q421.78-76.88 421.78-56.95Q421.78-37.02 411.01-23.58Q400.25-10.14 376.58-3.29Q352.91 3.56 314.11 3.56M314.11-30.25Q332.44-30.25 345.79-32.48Q359.14-34.70 366.43-40.49Q373.73-46.27 373.73-56.95Q373.73-67.63 366.43-73.41Q359.14-79.19 345.79-81.42Q332.44-83.64 314.11-83.64Q295.78-83.64 281.99-81.42Q268.19-79.19 260.45-73.41Q252.71-67.63 252.71-56.95Q252.71-46.27 260.45-40.49Q268.19-34.70 281.99-32.48Q295.78-30.25 314.11-30.25" fill="#f5f5f7" transform="translate(44.22,284.95)"/><rect x="125.8" y="314.5" width="260.4" height="30" rx="15" fill="#7c6ff7"/></svg>