<svg xmlns="http://www.w3.org/2000/svg" width="512" height="512" viewBox="0 0 512 512"><rect x="0" y="0" width="512" height="512" rx="120" fill="#14141c"/><rect x="20" y="20" width="472" height="472" rx="104" fill="none" stroke="#7c6ff7" stroke-width="14" opacity="0.75"/><path d="M108.92-11.51L27.76-11.51L27.76-29.31L108.92-29.31L108.92-11.51M33.81 0L1.19 0L52.08-75.93L85.07-75.93L136.44 0L103.81 0L59.80-67.98L77.47-67.98L33.81 0M209.41 2.37Q183.54 2.37 167.76-2.19Q151.98-6.76 144.81-15.72Q137.63-24.68 137.63-37.97Q137.63-51.25 144.81-60.21Q151.98-69.17 167.76-73.74Q183.54-78.31 209.41-78.31Q235.27-78.31 251.05-73.74Q266.83-69.17 274.01-60.21Q281.19-51.25 281.19-37.97Q281.19-24.68 274.01-15.72Q266.83-6.76 251.05-2.19Q235.27 2.37 209.41 2.37M209.41-20.17Q221.63-20.17 230.53-21.65Q239.42-23.14 244.29-26.99Q249.15-30.85 249.15-37.97Q249.15-45.08 244.29-48.94Q239.42-52.80 230.53-54.28Q221.63-55.76 209.41-55.76Q197.19-55.76 187.99-54.28Q178.80-52.80 173.64-48.94Q168.47-45.08 168.47-37.97Q168.47-30.85 173.64-26.99Q178.80-23.14 187.99-21.65Q197.19-20.17 209.41-20.17" fill="#f5f5f7" transform="translate(114.81,249.97)"/><rect x="152.4" y="286.3" width="207.2" height="26" rx="13" fill="#7c6ff7"/></svg>